<?xml version="1.0" encoding="iso-8859-1"?>
<!-- Uploaded to: SVG Repo, www.svgrepo.com, Generator: SVG Repo Mixer Tools -->
<!DOCTYPE svg PUBLIC "-//W3C//DTD SVG 1.1//EN" "http://www.w3.org/Graphics/SVG/1.1/DTD/svg11.dtd">
<svg fill="#000000" height="800px" width="800px" version="1.1" id="Capa_1" xmlns="http://www.w3.org/2000/svg" xmlns:xlink="http://www.w3.org/1999/xlink" 
	 viewBox="0 0 485.02 485.02" xml:space="preserve">
<g>
	<path d="M3.643,56.809C-1.782,74.98,8.546,94.109,26.706,99.535c3.285,0.977,6.586,1.445,9.848,1.445
		c14.781,0,28.422-9.625,32.879-24.512l1.793-6.027c1.238,10.941,7.641,20.676,17.188,26.078c3.063,1.73,6.426,3.055,10.074,3.785
		c2.254,0.453,4.516,0.676,6.746,0.676c16.035,0,30.371-11.301,33.625-27.637l0.855-4.293c0.816,11.68,7.57,21.906,17.473,27.469
		c3.98,2.238,8.426,3.801,13.266,4.277c1.164,0.117,2.316,0.176,3.449,0.176c17.434,0,32.355-13.219,34.117-30.93l0.246-2.547
		c0.324,12.504,7.363,23.23,17.582,28.977c4.953,2.785,10.586,4.5,16.672,4.5c6.086,0,11.719-1.715,16.668-4.5
		c10.234-5.754,17.281-16.488,17.582-29.016l0.254,2.586c1.762,17.711,16.688,30.93,34.117,30.93c1.129,0,2.285-0.059,3.445-0.176
		c4.84-0.484,9.273-2.039,13.25-4.277c9.902-5.547,16.66-15.734,17.492-27.387l0.844,4.211c3.25,16.336,17.59,27.637,33.617,27.637
		c2.234,0,4.488-0.223,6.75-0.676c3.656-0.73,7.023-2.055,10.086-3.785c9.543-5.402,15.945-15.137,17.168-26.078l1.793,6.027
		c4.461,14.887,18.105,24.512,32.887,24.512c3.246,0,6.563-0.469,9.848-1.445c18.16-5.426,28.484-24.555,23.055-42.727
		l-10.243-34.308C467.144,9.149,454.864,0,440.931,0H44.094c-13.932,0-26.21,9.146-30.198,22.495L3.643,56.809z"/>
	<path d="M448.494,395.935h-0.008V126.731h-0.008c-12.528,0-24.39-4.085-34.251-10.989c-6.674,4.689-14.353,8.173-22.882,9.871
		c-3.856,0.738-7.736,1.118-11.537,1.118c-12.671,0-24.468-4.173-34.299-11.076c-8.314,5.854-17.853,9.719-28.023,10.726
		c-2.127,0.231-4.254,0.341-6.34,0.341c-12.773,0-24.523-4.109-34.282-10.924c-9.751,6.839-21.558,10.924-34.348,10.924
		c-12.781,0-24.596-4.085-34.347-10.916c-9.759,6.807-21.501,10.916-34.274,10.916c-2.119,0-4.254-0.11-5.952-0.301
		c-10.44-1.031-20.056-4.912-28.411-10.774c-9.831,6.902-21.636,11.084-34.299,11.084c-3.77,0-7.64-0.372-11.79-1.167
		c-8.435-1.682-16.059-5.133-22.676-9.79c-9.87,6.878-21.709,10.957-34.221,10.957h-0.008v269.205h-0.015l-24.137,62.649
		c-2.309,5.981-1.516,12.71,2.111,17.994c3.625,5.284,9.624,8.441,16.034,8.441h423.959c6.41,0,12.409-3.157,16.035-8.441
		c3.626-5.284,4.412-12.021,2.111-17.994L448.494,395.935z M230.329,258.271V236.77c0-6.729,5.458-12.187,12.186-12.187
		c10.838,0,19.654-8.815,19.654-19.645c0-10.838-8.815-19.653-19.654-19.653c-10.838,0-19.653,8.815-19.653,19.653
		c0,6.729-5.458,12.187-12.187,12.187c-6.727,0-12.187-5.458-12.187-12.187c0-24.277,19.749-44.027,44.026-44.027
		c24.278,0,44.027,19.749,44.027,44.027c0,20.05-13.473,37.004-31.84,42.305v11.028c67.33,2.492,134.578,25.452,134.578,66.083
		c0,6.729-5.458,12.187-12.187,12.187c-6.727,0-12.186-5.458-12.186-12.187c0-17.105-47.677-41.955-122.392-41.955
		c-74.715,0-122.391,24.85-122.391,41.955c0,6.729-5.46,12.187-12.187,12.187c-6.729,0-12.187-5.458-12.187-12.187
		C95.751,283.723,162.999,260.763,230.329,258.271z M347.984,324.353c0,3.911-3.166,7.078-7.077,7.078H144.117
		c-3.911,0-7.077-3.167-7.077-7.078c0-3.911,3.165-7.077,7.077-7.077h196.791C344.818,317.277,347.984,320.442,347.984,324.353z
		 M39.711,459.272l14.481-37.59h376.632l14.487,37.59H39.711z"/>
</g>
</svg>